<svg width="1008" height="528" viewBox="0 0 1008 528" fill="none" xmlns="http://www.w3.org/2000/svg">
<rect x="170.401" width="150.015" height="527.281" rx="5" fill="#DDDDDD"/>
<path d="M857.985 5C857.985 2.23858 860.224 0 862.985 0H1003C1005.76 0 1008 2.23858 1008 5V522.281C1008 525.042 1005.76 527.281 1003 527.281H862.985C860.224 527.281 857.985 525.042 857.985 522.281V5Z" fill="#548C9C"/>
<rect x="687.584" y="87.8801" width="149.475" height="351.52" rx="5" fill="#548C9C"/>
<path d="M514.446 14.196C514.446 6.35578 522.151 0 531.657 0H648.695C658.201 0 665.907 6.35577 665.907 14.196V354.9C665.907 362.741 658.201 369.096 648.695 369.096H531.657C522.151 369.096 514.446 362.741 514.446 354.9V14.196Z" fill="#548C9C"/>
<rect x="341.782" width="150.015" height="527.281" rx="5" fill="#DDDDDD"/>
<rect y="260.711" width="149.475" height="263.64" rx="5" fill="#DDDDDD"/>
<rect x="514.193" y="392.531" width="152.464" height="134.749" rx="5" fill="#DDDDDD"/>
</svg>
